<svg width="21" height="29" viewBox="0 0 21 29" fill="none" xmlns="http://www.w3.org/2000/svg">
<path d="M10.1971 0C4.57422 0 0 4.58267 0 10.2151C0 17.2049 9.12518 27.4665 9.51421 27.8999C9.87892 28.3069 10.5153 28.3069 10.8801 27.8999C11.2691 27.4665 20.3943 17.2049 20.3943 10.2151C20.3943 4.58267 15.82 0 10.1971 0ZM10.1971 15.3538C7.36822 15.3538 5.06684 13.0482 5.06684 10.2151C5.06684 7.38091 7.36822 5.0753 10.1971 5.0753C13.026 5.0753 15.3274 7.38091 15.3274 10.2151C15.3274 13.0482 13.026 15.3538 10.1971 15.3538Z" fill="#FDC949"/>
</svg>
